<svg id="Group_275" data-name="Group 275" xmlns="http://www.w3.org/2000/svg" xmlns:xlink="http://www.w3.org/1999/xlink" width="67.593" height="76" viewBox="0 0 67.593 76">
  <defs>
    <clipPath id="clip-path">
      <rect id="Rectangle_515" data-name="Rectangle 515" width="67.593" height="76" fill="#ce778b"/>
    </clipPath>
  </defs>
  <g id="Group_275-2" data-name="Group 275" clip-path="url(#clip-path)">
    <path id="Path_63" data-name="Path 63" d="M33.447,4.668V0L51.067,9.26,33.441,18.526V14.338c-1.605.424-3.163.7-4.625,1.243C18.56,19.356,12.156,26.591,10.13,37.332a28.11,28.11,0,0,0,55.226,10.5c.3-1.5.39-3.048.545-4.577.07-.695.319-1.03.882-1.016s.831.35.808,1.065a32.937,32.937,0,0,1-7.78,20.508A32.3,32.3,0,0,1,40,75.426C27.567,77.542,17.029,73.8,8.57,64.455a32.681,32.681,0,0,1-8.1-17.067A35.12,35.12,0,0,1,4.1,25.136c5.575-10.7,14.36-17.322,26.142-19.951.52-.116,1.048-.2,1.575-.282s1.049-.152,1.626-.235" transform="translate(0 -0.001)" fill="#ce778b"/>
    <path id="Path_64" data-name="Path 64" d="M277.911,258.975,275.8,269.086l1.53.112c-.242,1.184-.466,2.326-.723,3.461-.021.093-.261.184-.406.194-.38.027-.762.009-1.187.009l-.936,4.331h-4.158l.928-4.454h-5.956a9.486,9.486,0,0,1,1.5-4.481c1.888-2.922,3.673-5.91,5.484-8.882a.856.856,0,0,1,.863-.483c1.5.041,2.993.034,4.489.049.208,0,.416.019.686.033m-6.29,10.051,1.238-5.71-3.27,5.71Z" transform="translate(-230.887 -225.657)" fill="#ce778b"/>
    <path id="Path_65" data-name="Path 65" d="M184.714,270.029h5.655c-.241,1.185-.443,2.252-.688,3.309-.039.17-.274.423-.416.421-3.227-.037-6.454-.105-9.68-.168-.019,0-.038-.019-.12-.064a8.978,8.978,0,0,1,.728-3.807,11.473,11.473,0,0,1,3.76-4.536,25.711,25.711,0,0,0,2.682-2.276,5.435,5.435,0,0,0,1.19-2.064,1.246,1.246,0,0,0-1.753-1.558,7.8,7.8,0,0,0-1.424.9l-2.479-2.443c2.032-2.948,6.93-3.9,9.26-.646a5.155,5.155,0,0,1,.109,5.7,11.82,11.82,0,0,1-3.205,3.541c-.906.748-1.846,1.457-2.726,2.234a9.6,9.6,0,0,0-1.017,1.242l.123.213" transform="translate(-156.419 -222.315)" fill="#ce778b"/>
    <path id="Path_66" data-name="Path 66" d="M372.75,263.63c.324-1.551.62-2.97.915-4.389a1.479,1.479,0,0,0,.076-.439,6.817,6.817,0,0,0-.161-.743c-.267.092-.638.105-.779.292a3.565,3.565,0,0,0-.6,1.247c-.3,1.178-.513,2.376-.789,3.56-.037.159-.226.392-.356.4-.678.04-1.361.019-2.136.019.212-1.062.4-2.04.6-3.014.5-2.379,1.015-4.755,1.5-7.138.078-.388.191-.554.609-.53.615.036,1.233.009,1.927.009l-.658,3.345a8.714,8.714,0,0,1,1.788-.476,1.442,1.442,0,0,1,1.605,1.592,35.749,35.749,0,0,1-.537,3.6c-.127.735-.337,1.455-.46,2.19-.062.373-.194.508-.579.487-.615-.033-1.234-.009-1.959-.009" transform="translate(-321.556 -220.427)" fill="#ce778b"/>
    <path id="Path_67" data-name="Path 67" d="M108.436,321.434c-.491,0-.983.018-1.474,0-.433-.021-.746-.225-.733-.709s.312-.667.764-.666c1,0,2.008,0,3.012,0a.649.649,0,0,1,.737.632c.035.479-.272.71-.7.736-.532.031-1.067.008-1.6.008" transform="translate(-92.591 -278.967)" fill="#ce778b"/>
    <path id="Path_68" data-name="Path 68" d="M453.749,319.924a8.284,8.284,0,0,1,1.533.028,1.022,1.022,0,0,1,.661.6.571.571,0,0,1-.6.729q-1.632.048-3.266,0a.573.573,0,0,1-.6-.73,1.03,1.03,0,0,1,.676-.593,9.136,9.136,0,0,1,1.6-.027" transform="translate(-393.492 -278.833)" fill="#ce778b"/>
    <path id="Path_69" data-name="Path 69" d="M124.853,383.34c-.119.124-.277.4-.514.513-.906.423-1.836.8-2.76,1.181a.673.673,0,0,1-1-.374c-.174-.449.083-.73.479-.9.92-.393,1.837-.793,2.766-1.164a.722.722,0,0,1,1.025.744" transform="translate(-105.054 -333.421)" fill="#ce778b"/>
    <path id="Path_70" data-name="Path 70" d="M442.958,385.36c-1.2-.521-2.288-.959-3.333-1.48a.659.659,0,0,1,.567-1.157,29.732,29.732,0,0,1,3.055,1.29.886.886,0,0,1,.315.783c-.052.23-.405.392-.6.564" transform="translate(-382.994 -333.578)" fill="#ce778b"/>
    <path id="Path_71" data-name="Path 71" d="M356.156,150.552c-.109.305-.158.467-.222.622-.359.862-.715,1.726-1.086,2.583-.172.4-.473.638-.912.451a.67.67,0,0,1-.351-1c.4-.915.747-1.852,1.193-2.743a1,1,0,0,1,.781-.439c.215.006.419.357.6.528" transform="translate(-308.108 -130.765)" fill="#ce778b"/>
    <path id="Path_72" data-name="Path 72" d="M222.091,153.781c-.136.129-.317.438-.542.476a.852.852,0,0,1-.733-.315,29.557,29.557,0,0,1-1.28-3.049.914.914,0,0,1,.386-.789.832.832,0,0,1,.788.248c.5,1.008.907,2.057,1.343,3.094a1.828,1.828,0,0,1,.038.336" transform="translate(-191.341 -130.808)" fill="#ce778b"/>
    <path id="Path_73" data-name="Path 73" d="M356.4,471.857c-.219.227-.384.542-.6.586a.848.848,0,0,1-.744-.28c-.492-1.009-.934-2.044-1.323-3.1a.818.818,0,0,1,.315-.726c.193-.11.711-.05.782.089.553,1.092,1.031,2.221,1.573,3.429" transform="translate(-308.303 -408.165)" fill="#ce778b"/>
    <path id="Path_74" data-name="Path 74" d="M218.726,471.439c.088-.263.127-.407.183-.543q.54-1.3,1.086-2.6c.184-.437.51-.666.967-.477s.5.582.308,1.018c-.4.92-.749,1.864-1.2,2.756a1.014,1.014,0,0,1-.815.381c-.194-.009-.373-.367-.529-.536" transform="translate(-190.646 -407.705)" fill="#ce778b"/>
    <path id="Path_75" data-name="Path 75" d="M121.5,247.578c.258.083.4.118.536.174.863.358,1.728.714,2.586,1.084.416.179.78.432.552.966-.217.51-.624.5-1.068.311-.9-.383-1.818-.727-2.688-1.166a1.035,1.035,0,0,1-.428-.792c0-.2.341-.4.51-.576" transform="translate(-105.46 -215.794)" fill="#ce778b"/>
    <path id="Path_76" data-name="Path 76" d="M439.9,250.955c-.227-.221-.523-.378-.56-.582-.043-.238.066-.67.238-.753,1.031-.5,2.089-.947,3.164-1.342.182-.067.583.151.713.349.108.164.048.658-.081.723-1.114.559-2.259,1.055-3.474,1.6" transform="translate(-382.928 -216.394)" fill="#ce778b"/>
    <path id="Path_77" data-name="Path 77" d="M161.334,436.786c-.171-.118-.45-.209-.511-.378a.9.9,0,0,1,.039-.758c.749-.819,1.543-1.6,2.347-2.367a.557.557,0,0,1,.9.078.927.927,0,0,1,.041.844c-.74.827-1.547,1.594-2.342,2.371a1.738,1.738,0,0,1-.468.21" transform="translate(-140.122 -377.494)" fill="#ce778b"/>
    <path id="Path_78" data-name="Path 78" d="M408.54,436.808c-.1.154-.187.437-.355.5a.906.906,0,0,1-.763-.031c-.832-.766-1.635-1.569-2.391-2.41a.789.789,0,0,1,.058-.779c.18-.164.682-.259.823-.134.86.766,1.66,1.6,2.469,2.42.079.081.088.231.159.435" transform="translate(-352.966 -378.193)" fill="#ce778b"/>
    <path id="Path_79" data-name="Path 79" d="M408.047,190.4a4.765,4.765,0,0,1-.429.633c-.655.675-1.328,1.332-1.989,2-.33.335-.7.455-1.069.117s-.272-.728.063-1.063c.71-.711,1.4-1.441,2.148-2.113a.994.994,0,0,1,.8-.136c.185.047.306.344.48.56" transform="translate(-352.416 -165.441)" fill="#ce778b"/>
    <path id="Path_80" data-name="Path 80" d="M163.166,192.805a4.529,4.529,0,0,1-.634-.423c-.676-.654-1.334-1.328-2-1.99-.33-.326-.47-.693-.122-1.065.381-.407.764-.253,1.11.093.694.7,1.411,1.374,2.067,2.1a1.006,1.006,0,0,1,.145.8c-.046.184-.346.306-.563.479" transform="translate(-139.638 -164.81)" fill="#ce778b"/>
    <path id="Path_81" data-name="Path 81" d="M291.206,137.375q0-.77,0-1.539c0-.43.2-.7.638-.721.476-.019.706.266.71.719q.016,1.538,0,3.077c0,.454-.231.735-.709.718s-.648-.333-.642-.78c.006-.491,0-.983,0-1.475" transform="translate(-253.82 -117.768)" fill="#ce778b"/>
    <path id="Path_82" data-name="Path 82" d="M291.2,482.59q0-.769,0-1.537a.674.674,0,1,1,1.342-.013c.007,1.025,0,2.049,0,3.074a.648.648,0,0,1-.7.736c-.453-.015-.657-.33-.647-.787.011-.491,0-.982,0-1.473" transform="translate(-253.815 -418.654)" fill="#ce778b"/>
  </g>
</svg>
