<svg id="Group_281" data-name="Group 281" xmlns="http://www.w3.org/2000/svg" xmlns:xlink="http://www.w3.org/1999/xlink" width="85.181" height="69.632" viewBox="0 0 85.181 69.632">
  <defs>
    <clipPath id="clip-path">
      <rect id="Rectangle_516" data-name="Rectangle 516" width="85.181" height="69.632" fill="#ce778b"/>
    </clipPath>
  </defs>
  <g id="Group_280" data-name="Group 280" clip-path="url(#clip-path)">
    <path id="Path_83" data-name="Path 83" d="M85.18,35.825c-1.435,2.709-2.8,5.455-4.318,8.12a82.978,82.978,0,0,1-10.087,14.3A32.667,32.667,0,0,1,54.683,68.618c-4.077,1.094-8.126,1.324-12.128-.324a13.812,13.812,0,0,1-4.638-3.152c-.248-.253-.49-.512-.786-.821-.4.511-.722.984-1.1,1.413C32.9,69.3,28.9,70.172,24.415,69.341c-6.068-1.125-10.734-4.516-14.566-9.2A72.921,72.921,0,0,1,.207,44.583c-.056-.12-.1-.247-.208-.54l9.5-1.407C6.3,32.419,7.422,22.756,13.492,13.89A30.71,30.71,0,0,1,33.734.632,30.889,30.889,0,0,1,60.877,7.959c7.787,6.778,11.3,15.513,11.055,25.616L85.18,35.659ZM39.941,61.874c.326.35.591.668.89.949,3.086,2.89,6.807,3.439,10.761,2.7a27.172,27.172,0,0,0,14.853-8.06A82.523,82.523,0,0,0,78.677,40.34c.347-.617.663-1.252.993-1.878a1.123,1.123,0,0,0-.224-.115,92.032,92.032,0,0,0-20.21-.871,29.249,29.249,0,0,0-14.3,4.552c-3.059,2.05-5.785,4.4-7.228,7.909a10.871,10.871,0,0,0,.593,9.414L63.943,46.286l.086.158L39.941,61.874M5.487,46.9c.77,1.334,1.422,2.521,2.125,3.677a45.649,45.649,0,0,0,8.413,10.655,17.315,17.315,0,0,0,11.754,4.685A6.742,6.742,0,0,0,33.026,63.5L16.85,52.344l.072-.12,17.627,8.247a18.156,18.156,0,0,1-1.3-7.659c.016-.237-.238-.538-.439-.737A18.585,18.585,0,0,0,22.845,46.8a47.772,47.772,0,0,0-12.418-.425c-1.593.129-3.179.334-4.94.522m32.45-29.258a45.473,45.473,0,0,0-10.5,1.468,1.039,1.039,0,0,0-.6.643,23.378,23.378,0,0,0-.644,2.909c-.35,2.478-.639,4.965-.959,7.5h12.7Zm3.82,12.535H54.24a.825.825,0,0,0,.066-.2,45.927,45.927,0,0,0-1.459-10.238,1.16,1.16,0,0,0-.762-.672c-2.166-.432-4.337-.846-6.52-1.171-1.241-.185-2.508-.192-3.808-.283Zm-16.57,3.831c.4,2.863.81,5.616,1.147,8.378a2.184,2.184,0,0,0,1.811,2.17A11.654,11.654,0,0,1,30,45.448a6.34,6.34,0,0,0,1.476.5c1.089.18,2.189.309,3.291.394a1.084,1.084,0,0,0,.79-.352c.724-.87,1.417-1.768,2.068-2.694a1.974,1.974,0,0,0,.333-1.05c.029-2.242.015-4.484.015-6.726V34.008ZM29.114,5.814A28.69,28.69,0,0,0,13.6,21.314c.164,0,.228.021.259,0a33.182,33.182,0,0,1,9.693-4.964,1.292,1.292,0,0,0,.6-.7c.719-1.672,1.309-3.407,2.124-5.029s1.839-3.131,2.841-4.806m21.512.131a32.995,32.995,0,0,1,4.785,9.435,1.612,1.612,0,0,0,1.15,1.149,30.441,30.441,0,0,1,9.169,4.712,2.97,2.97,0,0,0,.424.192A28.208,28.208,0,0,0,50.627,5.945M37.939,4.061c-4.166.788-8.293,6.86-9.424,10.828l9.424-1.126Zm3.837-.128v9.834l9.567,1.14c-2.058-4.6-4.315-8.992-9.567-10.974M67.887,30.189c-.813-4.107-6.588-8.146-10.83-9.443l1.124,9.443Zm-46.278-.017c.131-1.614.213-3.187.4-4.748.189-1.579.482-3.145.733-4.743-4.988,1.673-10.275,5.746-10.9,9.491Zm.938,12.761-1.014-8.922H11.844c.272,3.623,7.621,9.237,10.7,8.922M54.33,34.221l-.066-.2H41.781v5.487c2.039-1.081,4-2.295,6.09-3.178s4.3-1.421,6.459-2.111" transform="translate(0.001 -0.001)" fill="#ce778b"/>
  </g>
</svg>
