<svg xmlns="http://www.w3.org/2000/svg" xmlns:xlink="http://www.w3.org/1999/xlink" width="75.162" height="69.632" viewBox="0 0 75.162 69.632">
  <defs>
    <clipPath id="clip-path">
      <rect id="Rectangle_513" data-name="Rectangle 513" width="75.162" height="69.632" fill="#ce778b"/>
    </clipPath>
  </defs>
  <g id="Group_270" data-name="Group 270" clip-path="url(#clip-path)">
    <path id="Path_52" data-name="Path 52" d="M51.711,94.667v5.741c1.669-.244,2.918-1.208,2.918-2.741,0-1.723-1.167-2.484-2.918-3" transform="translate(-31.697 -58.027)" fill="#ce778b"/>
    <path id="Path_53" data-name="Path 53" d="M18.982,41.916a18.6,18.6,0,1,0,18.24,18.653,18.6,18.6,0,0,0-18.24-18.653M20.014,70.8v2.307H17.232V70.651a8.2,8.2,0,0,1-6.216-5.469l-.068-.19,2.741-1.181.095.272a5.73,5.73,0,0,0,3.447,3.8V61.532l-.665-.2a10.538,10.538,0,0,1-1.642-.638,5.49,5.49,0,0,1-3.312-4.954c0-3,2.294-5.225,5.619-5.578V47.5h2.782V50.24a7.724,7.724,0,0,1,5.809,4.913l.068.19-2.741,1.248-.1-.271a4.967,4.967,0,0,0-3.04-3.312v6.338l.882.258c3.013.937,5.076,2.5,5.076,5.551,0,3.189-2.5,5.32-5.958,5.646" transform="translate(0 -25.693)" fill="#ce778b"/>
    <path id="Path_54" data-name="Path 54" d="M37.9,72.919c0,1.452,1.058,2.443,2.565,2.959V70.191A2.763,2.763,0,0,0,37.9,72.919" transform="translate(-23.229 -43.024)" fill="#ce778b"/>
    <path id="Path_55" data-name="Path 55" d="M47.555,13.871H43.719a77.626,77.626,0,0,1,.088-9.441c.34-2.742,3.265-4.412,6.678-4.414Q70.623,0,90.761.012c1.485,0,2.97-.033,4.454.006,3.981.1,6.54,2.652,6.545,6.593q.031,22.645-.017,45.289a3.761,3.761,0,0,1-.757,2.253q-6.234,7.4-12.625,14.663a2.678,2.678,0,0,1-1.8.779q-18.3.063-36.6.013a6.133,6.133,0,0,1-6.469-6.054c-.154-2.554-.03-5.126-.03-7.771h4.09c0,2.169-.009,4.341,0,6.512.013,2.527.589,3.123,3.019,3.124q15.781.008,31.562.008h2.589c0-2.584,0-5.071,0-7.557.008-5.1,2.326-7.4,7.473-7.425,1.723-.008,3.446,0,5.367,0,0-1.921,0-3.646,0-5.371q0-18.87-.006-37.74c0-2.707-.418-3.11-3.16-3.112q-21.881-.011-43.761,0c-2.474,0-3.066.6-3.083,3.069-.015,2.175,0,4.35,0,6.586" transform="translate(-26.613 0)" fill="#ce778b"/>
    <path id="Path_56" data-name="Path 56" d="M119.3,109.384v5.131H91.641c.85-1.576,1.588-3.054,2.445-4.459a1.673,1.673,0,0,1,1.228-.645c7.924-.038,15.849-.028,23.986-.028" transform="translate(-56.172 -67.047)" fill="#ce778b"/>
    <path id="Path_57" data-name="Path 57" d="M87.4,39.829l5.3-3.789,8.448,7.36L112.9,35.143l-1.56-2.512,9.078-.843-3.826,8.262-1.935-2.339-13.707,9.633-8.41-7.32-3.247,2.217L87.4,39.829" transform="translate(-53.575 -19.485)" fill="#ce778b"/>
    <rect id="Rectangle_512" data-name="Rectangle 512" width="26.305" height="4.902" transform="translate(28.754 52.656)" fill="#ce778b"/>
    <path id="Path_58" data-name="Path 58" d="M102.132,88.562c-.027-.454-.054-.708-.055-.963,0-1.287,0-2.574,0-4.024h23.551v4.987Z" transform="translate(-62.567 -51.228)" fill="#ce778b"/>
  </g>
</svg>
