<svg id="Group_283" data-name="Group 283" xmlns="http://www.w3.org/2000/svg" xmlns:xlink="http://www.w3.org/1999/xlink" width="67.581" height="67.49" viewBox="0 0 67.581 67.49">
  <defs>
    <clipPath id="clip-path">
      <rect id="Rectangle_527" data-name="Rectangle 527" width="67.581" height="67.49" fill="#ce778b" stroke="#ce778b" stroke-width="1.25"/>
    </clipPath>
  </defs>
  <g id="Group_282" data-name="Group 282" clip-path="url(#clip-path)">
    <path id="Path_84" data-name="Path 84" d="M120.975,141.8V141.1c0-3.213.011-6.426-.011-9.639,0-.541.139-.734.7-.712,1.534.06,1.306-.211,1.311,1.348q.016,5.645-.007,11.289a1.426,1.426,0,0,0,.466,1.162c.74.69,1.436,1.427,2.154,2.14.164.163.343.311.67.605v-.876c0-3.565.012-7.13-.012-10.695,0-.573.146-.771.738-.75,1.489.053,1.27-.168,1.273,1.251.009,4.225-.009,8.451.017,12.676,0,.611-.176.739-.775.791a3.223,3.223,0,0,1-2.813-1.146c-2.793-2.9-5.668-5.722-8.527-8.558a1.473,1.473,0,0,1-.476-1.157c.02-3.213,0-6.426.023-9.639a.961.961,0,0,0-.679-1.072,3.91,3.91,0,0,1-2.448-4,4.014,4.014,0,0,1,3.486-3.817,4.11,4.11,0,0,1,2.206,7.861.783.783,0,0,0-.584.865c.02,3.059,0,6.118.027,9.176a1.6,1.6,0,0,0,.392.972c.853.939,1.761,1.829,2.648,2.738l.222-.108M116.724,122.2a2.168,2.168,0,1,0,2.138,2.163,2.08,2.08,0,0,0-2.138-2.163" transform="translate(-97.695 -104.37)" fill="#ce778b" stroke="#ce778b" stroke-width="1.25"/>
    <path id="Path_85" data-name="Path 85" d="M282.386,76.183c.171-.156.35-.305.513-.469q5.837-5.834,11.678-11.664a1.367,1.367,0,0,0,.449-1.1c-.029-.857.006-1.717-.015-2.574-.01-.408.1-.6.551-.594,1.775.037,1.429-.208,1.452,1.4a8.107,8.107,0,0,1-.105,3.067c-.381.906-1.378,1.559-2.123,2.306-3.793,3.8-7.6,7.585-11.377,11.405a2.235,2.235,0,0,1-1.842.754c-1.338-.058-1.34-.016-1.34-1.385,0-2.245.01-4.49-.01-6.734a1.4,1.4,0,0,1,.452-1.1c2.175-2.151,4.343-4.31,6.481-6.5a1.752,1.752,0,0,0,.452-1.078c.048-1.627.008-3.257.029-4.885a.782.782,0,0,0-.556-.883,3.945,3.945,0,0,1-2.577-3.99,3.994,3.994,0,0,1,3.56-3.888,4.107,4.107,0,0,1,2.26,7.814.984.984,0,0,0-.706,1.119c.032,1.8,0,3.609.021,5.414a1.4,1.4,0,0,1-.454,1.1c-2.174,2.152-4.343,4.31-6.48,6.5a1.754,1.754,0,0,0-.447,1.079c-.048,1.6-.021,3.206-.021,4.809l.155.084m6.2-21.68a2.168,2.168,0,1,0-2.131-2.236,2.087,2.087,0,0,0,2.131,2.236" transform="translate(-243.215 -41.85)" fill="#ce778b" stroke="#ce778b" stroke-width="1.25"/>
    <path id="Path_86" data-name="Path 86" d="M7.287,217.427h-2v-.733q0-6.832,0-13.664c0-1.086-.333-1.419-1.409-1.42-.264,0-.529-.013-.792.006a1.033,1.033,0,0,0-1.009,1.015c-.012.153,0,.308,0,.462q0,10.165-.006,20.33A7.246,7.246,0,0,0,4.3,228.8q3.093,3.068,6.158,6.164a7.4,7.4,0,0,1,2.172,5.695H10.646a6.73,6.73,0,0,0-.259-1.833,8.911,8.911,0,0,0-1.5-2.506C6.9,234.207,4.8,232.194,2.75,230.138a9.067,9.067,0,0,1-2.735-6.582C-.011,216.669,0,209.783.009,202.9a3.191,3.191,0,0,1,3.357-3.357,4.079,4.079,0,0,1,2.7.635A3.009,3.009,0,0,1,7.341,202.6c.023,4.884.007,9.769,0,14.653a.789.789,0,0,1-.057.174" transform="translate(0 -173.188)" fill="#ce778b" stroke="#ce778b" stroke-width="1.25"/>
    <path id="Path_87" data-name="Path 87" d="M423.426,217.283h-2.068v-.757c0-4.4.072-8.8-.028-13.2-.055-2.427,1.283-4.106,4.008-3.939a3.251,3.251,0,0,1,3.063,1.893,3.488,3.488,0,0,1,.294,1.4c.018,6.953.038,13.906,0,20.859a8.962,8.962,0,0,1-2.723,6.454c-1.988,2-3.969,4-5.979,5.97a5.451,5.451,0,0,0-1.851,4.27,1.82,1.82,0,0,1-.036.285h-2.017a7.41,7.41,0,0,1,2.209-5.736q3.041-3.073,6.114-6.115a7.251,7.251,0,0,0,2.235-5.379q-.02-10.165-.005-20.331c0-1.182-.3-1.488-1.471-1.49-.154,0-.308,0-.462,0-.911.009-1.279.37-1.28,1.28q0,6.8,0,13.6v.936" transform="translate(-361.135 -173.047)" fill="#ce778b" stroke="#ce778b" stroke-width="1.25"/>
    <path id="Path_88" data-name="Path 88" d="M248.263,85.947V64.688c0-.874,0-.879.852-.873,1.323.009,1.149-.144,1.149,1.169q.005,21.159.018,42.318c0,.671-.224.809-.832.783-1.348-.056-1.184.166-1.185-1.212q-.008-10.464,0-20.928" transform="translate(-215.476 -55.387)" fill="#ce778b" stroke="#ce778b" stroke-width="1.25"/>
    <path id="Path_89" data-name="Path 89" d="M65.093,358.864H63.124c0-.264,0-.5,0-.733,0-2.111,0-4.223,0-6.334A7.013,7.013,0,0,0,61,346.642c-2.81-2.819-5.638-5.621-8.433-8.456a.784.784,0,0,0-1.138-.132,1.419,1.419,0,0,0-.488,2.314q3.119,4.456,6.237,8.914c.124.177.238.362.382.581L55.939,351c-.132-.167-.257-.309-.365-.463-2.234-3.185-4.437-6.392-6.719-9.543a2.383,2.383,0,0,1-.356-2.213,4.2,4.2,0,0,1,4.064-3.062,1.085,1.085,0,0,1,.678.288c3.137,3.114,6.276,6.227,9.379,9.376a7.937,7.937,0,0,1,2.445,5.269c.114,2.716.028,5.44.028,8.213" transform="translate(-41.989 -291.384)" fill="#ce778b" stroke="#ce778b" stroke-width="1.25"/>
    <path id="Path_90" data-name="Path 90" d="M338.034,358.951H336.02a4.765,4.765,0,0,1-.05-.494c0-2.223-.035-4.446.007-6.668a9.093,9.093,0,0,1,2.7-6.464q4.566-4.585,9.161-9.14a1.443,1.443,0,0,1,.967-.365A4.155,4.155,0,0,1,352.8,339.8a1.263,1.263,0,0,1-.165.737q-3.609,5.2-7.253,10.386a1,1,0,0,1-.177.147l-1.618-1.126c.159-.231.3-.442.446-.65,2.118-3.028,4.228-6.061,6.366-9.075.309-.435.451-.854.089-1.235a8.164,8.164,0,0,0-1.363-1.058c-.056-.038-.3.139-.415.256-2.929,2.922-5.874,5.829-8.77,8.784a6.649,6.649,0,0,0-1.906,4.779c-.009,2.376,0,4.753,0,7.208" transform="translate(-291.591 -291.473)" fill="#ce778b" stroke="#ce778b" stroke-width="1.25"/>
    <path id="Path_91" data-name="Path 91" d="M280.205,309.916c0-4.467.011-8.934-.013-13.4,0-.618.134-.853.795-.821,1.4.068,1.219-.176,1.22,1.245q.008,13.137,0,26.274c0,.909,0,.914-.883.908-1.276-.008-1.117.134-1.118-1.134q-.008-6.535,0-13.071" transform="translate(-243.191 -256.644)" fill="#ce778b" stroke="#ce778b" stroke-width="1.25"/>
    <path id="Path_92" data-name="Path 92" d="M220.457,369.16c-1.266,0-2.428-.02-3.589.009-.485.012-.651-.137-.647-.635q.03-4.089,0-8.178c0-.463.145-.616.606-.6,1.669.05,1.389-.223,1.4,1.382.017,1.974,0,3.948,0,6.021,1.193,0,2.329.034,3.461-.013.608-.025.783.153.778.77q-.044,5.539,0,11.079c0,.581-.161.763-.743.741-1.482-.055-1.262.187-1.268-1.249-.01-2.814,0-5.628,0-8.442Z" transform="translate(-187.669 -312.248)" fill="#ce778b" stroke="#ce778b" stroke-width="1.25"/>
    <path id="Path_93" data-name="Path 93" d="M218.234,451.889c0,1.188-.013,2.377.008,3.564.008.433-.086.644-.58.628-1.711-.054-1.413.232-1.427-1.427-.018-2.068.01-4.137-.013-6.2-.006-.52.106-.745.687-.732,1.323.029,1.324,0,1.324,1.332q0,1.419,0,2.838" transform="translate(-187.67 -388.596)" fill="#ce778b" stroke="#ce778b" stroke-width="1.25"/>
    <rect id="Rectangle_517" data-name="Rectangle 517" width="1.987" height="2" transform="translate(20.119 11.592)" fill="#ce778b" stroke="#ce778b" stroke-width="1.25"/>
    <rect id="Rectangle_518" data-name="Rectangle 518" width="1.997" height="2" transform="translate(28.565 26.387)" fill="#ce778b" stroke="#ce778b" stroke-width="1.25"/>
    <rect id="Rectangle_519" data-name="Rectangle 519" width="1.962" height="1.986" transform="translate(41.259 39.061)" fill="#ce778b" stroke="#ce778b" stroke-width="1.25"/>
    <rect id="Rectangle_520" data-name="Rectangle 520" width="2" height="1.981" transform="translate(41.231 43.3)" fill="#ce778b" stroke="#ce778b" stroke-width="1.25"/>
    <rect id="Rectangle_521" data-name="Rectangle 521" width="1.962" height="1.984" transform="translate(24.357 47.513)" fill="#ce778b" stroke="#ce778b" stroke-width="1.25"/>
    <rect id="Rectangle_522" data-name="Rectangle 522" width="1.979" height="1.955" transform="translate(32.811)" fill="#ce778b" stroke="#ce778b" stroke-width="1.25"/>
    <rect id="Rectangle_523" data-name="Rectangle 523" width="2" height="1.978" transform="translate(32.778 4.214)" fill="#ce778b" stroke="#ce778b" stroke-width="1.25"/>
    <rect id="Rectangle_524" data-name="Rectangle 524" width="1.962" height="1.986" transform="translate(51.823 13.707)" fill="#ce778b" stroke="#ce778b" stroke-width="1.25"/>
    <rect id="Rectangle_525" data-name="Rectangle 525" width="1.992" height="2" transform="translate(51.809 9.49)" fill="#ce778b" stroke="#ce778b" stroke-width="1.25"/>
    <rect id="Rectangle_526" data-name="Rectangle 526" width="2" height="1.991" transform="translate(15.882 11.603)" fill="#ce778b" stroke="#ce778b" stroke-width="1.25"/>
  </g>
</svg>
