<svg xmlns="http://www.w3.org/2000/svg" xmlns:xlink="http://www.w3.org/1999/xlink" width="67" height="76" viewBox="0 0 67 76">
  <defs>
    <clipPath id="clip-path">
      <rect id="Rectangle_514" data-name="Rectangle 514" width="67" height="76" transform="translate(0 -0.39)" fill="#ce778b"/>
    </clipPath>
  </defs>
  <g id="Group_274" data-name="Group 274" transform="translate(0 0.39)">
    <g id="Group_274-2" data-name="Group 274" clip-path="url(#clip-path)">
      <path id="Path_59" data-name="Path 59" d="M66.752,25.942c-1.342-1.094-3.611-1.37-3.35-3.9.028-.271-.573-.786-.963-.894A71.214,71.214,0,0,1,36.433,7.361c-.532-.431-1.039-.892-1.562-1.334-.481-.407-.967-.807-1.456-1.215C24.674,12.549,14.947,18.4,3.233,21.423c.412,3.845.615,7.735,1.279,11.544A54.026,54.026,0,0,0,15.575,58.242a48.094,48.094,0,0,0,16.9,13.219,2.658,2.658,0,0,0,2.024-.045A42.017,42.017,0,0,0,48.554,61.144c1.811-2.115,3.693-2.058,6.124-1.905A48.853,48.853,0,0,1,40.966,71.663c-2.309,1.418-4.74,2.637-7.115,3.947h-.633a5.329,5.329,0,0,0-.533-.32C13.887,66.669,3.981,51.581.948,31.54.478,28.432.308,25.278,0,22.145v-3.48c10.034-1.913,18.793-6.54,26.766-12.747,2.3-1.787,4.309-3.936,6.452-5.918h.316A6.373,6.373,0,0,0,34.1.712c9.291,8.883,19.937,15.3,32.654,17.953Z" fill="#ce778b"/>
      <path id="Path_60" data-name="Path 60" d="M41.868,84.077a42.91,42.91,0,0,1-8.235-9.117,52.636,52.636,0,0,1-8.391-23.836c-.143-1.3-.627-2.883-.079-3.829.485-.837,2.19-.963,3.354-1.41A80.138,80.138,0,0,0,50.442,32.978a92.523,92.523,0,0,0,19.68,12.24H60.161A9.888,9.888,0,0,0,54.826,38.1a9.59,9.59,0,0,0-13.878,8.66c-.177,10.8-.088,21.607-.006,32.41a27.394,27.394,0,0,0,.926,4.907" transform="translate(-17.028 -22.545)" fill="#ce778b"/>
      <path id="Path_61" data-name="Path 61" d="M134.968,90.285c-.461-2.435-1.718-3.527-3.938-3.531q-11.7-.019-23.4-.005h-1.883c-.034-.626-.065-1.171-.108-1.949h1.625q11.622,0,23.244,0c4.34,0,6.559,2.262,6.56,6.641q0,7.669,0,15.338c-.006,3.822-2.38,6.252-6.155,6.26q-11.859.024-23.719,0c-.463,0-.927-.048-1.463-.078v-1.845h1.665q11.543,0,23.086,0c3.125,0,4.654-1.518,4.663-4.632.01-3.581,0-7.162,0-10.925H105.7V90.285Z" transform="translate(-72.218 -57.971)" fill="#ce778b"/>
      <path id="Path_62" data-name="Path 62" d="M97.968,59.384c-1.123.373-1.72.161-2.214-.893a4.545,4.545,0,0,0-5.1-2.551,4.746,4.746,0,0,0-3.746,4.673q-.035,16.75,0,33.5a4.546,4.546,0,0,0,3.032,4.393c1.853.779,3.619.239,5.172-1.261a4.5,4.5,0,0,1,2.33-1,5.573,5.573,0,0,1-4.832,4.355,5.839,5.839,0,0,1-6.088-2.438,8.066,8.066,0,0,1-1.455-4.21c-.117-11.06-.088-22.122-.052-33.184a6.57,6.57,0,0,1,12.869-2.093,3.946,3.946,0,0,1,.076.707" transform="translate(-58.104 -36.877)" fill="#ce778b"/>
    </g>
  </g>
</svg>
