<svg id="Group_266" data-name="Group 266" xmlns="http://www.w3.org/2000/svg" xmlns:xlink="http://www.w3.org/1999/xlink" width="58.191" height="70.466" viewBox="0 0 58.191 70.466">
  <defs>
    <clipPath id="clip-path">
      <rect id="Rectangle_506" data-name="Rectangle 506" width="58.191" height="70.466" fill="#ce778b"/>
    </clipPath>
  </defs>
  <g id="Group_265" data-name="Group 265" clip-path="url(#clip-path)">
    <path id="Path_48" data-name="Path 48" d="M29.082,52.453c-1.252,1.636-2.44,3.182-3.623,4.732Q20.713,63.4,15.976,69.629a1.8,1.8,0,0,1-2,.769,1.666,1.666,0,0,1-1.267-1.533c-.311-2.357-.647-4.711-.974-7.067-.037-.27-.079-.54-.126-.858-2.636.348-5.187.668-7.732,1.028a1.79,1.79,0,0,1-2.023-.886,1.82,1.82,0,0,1,.309-2.121q4.179-5.422,8.327-10.868c.2-.259.384-.526.5-.69-1.252-.385-2.477-.681-3.638-1.136A4.029,4.029,0,0,1,4.78,42.238a14.173,14.173,0,0,1,.445-3.416c.765-3.2.581-3.755-1.936-5.844a11.254,11.254,0,0,1-2.506-2.82c-1.3-2.2-.97-3.61.917-6.121a7.619,7.619,0,0,1,1.5-1.375c2.658-2.039,2.9-2.737,1.932-6.014a7.682,7.682,0,0,1,.127-5.314,3.075,3.075,0,0,1,.824-1.14,7.316,7.316,0,0,1,4.854-1.737c.142,0,.284.011.425,0,3.208-.181,3.55-.53,4.72-3.218.339-.777.653-1.57,1.056-2.313C18.725,0,20.5-.485,23.594.4a10.407,10.407,0,0,1,1.828.881c.2.1.365.269.555.392,2.747,1.78,3.545,1.831,6.288-.057a8.584,8.584,0,0,1,4.4-1.6,3.948,3.948,0,0,1,3.8,1.969A26.66,26.66,0,0,1,42.1,5.227c1.191,2.642,1.474,3.118,4.8,3.212a9.654,9.654,0,0,1,4.162,1,4.1,4.1,0,0,1,2.341,3.754,20.707,20.707,0,0,1-.355,3.434,5.969,5.969,0,0,1-.29,1.06c-.684,2.1.275,3.5,1.873,4.727a10.188,10.188,0,0,1,2.345,2.3c1.7,2.562,1.609,3.889-.266,6.586a7.688,7.688,0,0,1-1.7,1.644c-2.639,2-2.923,2.788-1.921,6.092a8.754,8.754,0,0,1,.227,4.108c-.4,2.337-2.152,3.177-4.108,3.774a15.1,15.1,0,0,1-2.128.324c.962,1.266,1.873,2.473,2.792,3.674q3.1,4.053,6.208,8.1a1.767,1.767,0,0,1,.233,2.127,1.791,1.791,0,0,1-1.972.83c-2.545-.365-5.1-.684-7.75-1.034-.156,1.114-.309,2.195-.459,3.276-.215,1.542-.441,3.082-.638,4.625a1.671,1.671,0,0,1-1.33,1.569,1.822,1.822,0,0,1-1.977-.831q-6.3-8.295-12.636-16.564c-.119-.155-.25-.3-.468-.559M50.1,42.037c-.221-.992-.423-1.989-.666-2.976-.626-2.538-.622-4.952,1.324-7,.429-.45.9-.864,1.347-1.294.756-.723,1.533-1.426,2.262-2.176a1.054,1.054,0,0,0-.015-1.6c-.751-.768-1.51-1.535-2.331-2.225-2.108-1.772-3.4-3.867-2.848-6.745.255-1.331.565-2.653.812-3.986.208-1.123-.106-1.613-1.23-1.8-1.088-.181-2.193-.258-3.293-.365A6.712,6.712,0,0,1,39.716,8.36c-.33-.623-.592-1.282-.893-1.921-.372-.792-.723-1.6-1.136-2.366a1.06,1.06,0,0,0-1.576-.49c-.849.45-1.693.911-2.524,1.4-1.735,1.012-3.534,1.953-5.6,1.393a23.31,23.31,0,0,1-3.63-1.578c-.766-.358-1.509-.766-2.254-1.167a1.1,1.1,0,0,0-1.675.568c-.481.958-.936,1.934-1.332,2.931A7.064,7.064,0,0,1,12.424,11.9a26.246,26.246,0,0,0-2.869.322c-1.239.208-1.552.67-1.327,1.882.16.861.376,1.711.571,2.566.549,2.411.608,4.737-1.221,6.708-.48.518-1.018.982-1.53,1.47-.7.664-1.434,1.291-2.079,2-.678.748-.684,1.176.01,1.928a25.357,25.357,0,0,0,2.241,2.078c2.069,1.759,3.341,3.841,2.807,6.68-.214,1.138-.505,2.262-.695,3.4-.339,2.04-.014,2.422,2.08,2.6.057,0,.114,0,.17.007l3.123.363c2.947.342,4.445,2.332,5.507,4.827.365.857.7,1.734,1.146,2.549.57,1.045.915,1.152,1.995.614,1.239-.617,2.436-1.322,3.65-1.989a6.07,6.07,0,0,1,6.234.024c1.236.686,2.466,1.388,3.735,2.01.929.455,1.321.337,1.809-.564.51-.941.917-1.941,1.336-2.929,1.109-2.616,2.872-4.362,5.86-4.605,1.3-.105,2.587-.3,3.871-.5.685-.112,1.251-.435,1.249-1.3" transform="translate(0 0.001)" fill="#ce778b"/>
    <path id="Path_49" data-name="Path 49" d="M77.28,89.035A19.166,19.166,0,1,1,96.493,69.861,19.23,19.23,0,0,1,77.28,89.035m5.642-10.417c-.33-1.935-.614-3.743-.96-5.54a1.1,1.1,0,0,1,.361-1.194c.679-.6,1.321-1.244,1.959-1.888.663-.669,1.3-1.361,1.993-2.083-1.906-.293-3.754-.556-5.593-.879a1.283,1.283,0,0,1-.811-.566c-.732-1.371-1.4-2.777-2.093-4.169-.142-.284-.3-.558-.515-.95-.9,1.8-1.694,3.458-2.555,5.08a1.381,1.381,0,0,1-.872.607c-1.83.328-3.673.589-5.365.851,1.2,1.286,2.421,2.622,3.686,3.909a1.3,1.3,0,0,1,.441,1.33c-.354,1.768-.624,3.553-.953,5.485,1.658-.868,3.224-1.631,4.728-2.5a1.646,1.646,0,0,1,1.861.03c1.476.833,3,1.591,4.688,2.48" transform="translate(-48.185 -42.069)" fill="#ce778b"/>
  </g>
</svg>
