<svg xmlns="http://www.w3.org/2000/svg" width="48.365" height="69.093" viewBox="0 0 48.365 69.093">
  <path id="Icon_material-lightbulb-outline" data-name="Icon material-lightbulb-outline" d="M21.319,68.638a3.465,3.465,0,0,0,3.455,3.455H38.592a3.465,3.465,0,0,0,3.455-3.455V65.184H21.319ZM31.683,3A24.172,24.172,0,0,0,17.864,47.012V54.82a3.465,3.465,0,0,0,3.455,3.455H42.047A3.465,3.465,0,0,0,45.5,54.82V47.012A24.172,24.172,0,0,0,31.683,3Zm9.846,38.347-2.936,2.073v7.946H24.773V43.419l-2.936-2.073a17.273,17.273,0,1,1,19.692,0Z" transform="translate(-7.5 -3)" fill="#ce778b"/>
</svg>
