<svg id="Group_260" data-name="Group 260" xmlns="http://www.w3.org/2000/svg" xmlns:xlink="http://www.w3.org/1999/xlink" width="76.649" height="59.041" viewBox="0 0 76.649 59.041">
  <defs>
    <clipPath id="clip-path">
      <rect id="Rectangle_503" data-name="Rectangle 503" width="76.649" height="59.041" fill="#ce778b"/>
    </clipPath>
  </defs>
  <g id="Group_259" data-name="Group 259" clip-path="url(#clip-path)">
    <path id="Path_36" data-name="Path 36" d="M190.663,91.9c2.277.346,4.43.73,6.6.986,2.669.315,5.065,1.146,6.575,3.5a20.028,20.028,0,0,1,1.65,3.607q2.155,5.573,4.227,11.178a3.932,3.932,0,1,1-7.36,2.76c-1.554-4.085-3.118-8.167-4.62-12.272a1.265,1.265,0,0,0-1.178-.921q-6.61-.988-13.217-2a5.094,5.094,0,0,1-3.825-7.649q3.8-7.143,7.614-14.278c.153-.288.3-.579.507-.977-1.726-.258-3.373-.41-4.971-.776-1.109-.254-1.595.139-2.119,1.05q-2.485,4.319-5.168,8.521a4.057,4.057,0,0,1-1.85,1.526,2.5,2.5,0,0,1-2.921-.848,2.831,2.831,0,0,1-.335-3.409c2.038-3.427,4.068-6.86,6.207-10.224a5.538,5.538,0,0,1,5.825-2.537q5.92.831,11.824,1.775a5.032,5.032,0,0,1,3.793,7.312c-1.069,2.156-2.253,4.256-3.384,6.382C193.265,87,192,89.389,190.663,91.9" transform="translate(-141.588 -57.578)" fill="#ce778b"/>
    <path id="Path_37" data-name="Path 37" d="M103.9,221.585a6.3,6.3,0,0,0,5.81,5.314c-1.627,1.9-3.193,3.723-4.752,5.553a8,8,0,0,1-6.018,2.9c-1.854.076-3.706.193-5.559.282-2.711.131-5.422.285-8.134.37a3.922,3.922,0,1,1-.284-7.835c4.4-.225,8.8-.426,13.193-.676a1.765,1.765,0,0,0,1.1-.533c1.543-1.729,3.035-3.5,4.639-5.374" transform="translate(-67.569 -184.72)" fill="#ce778b"/>
    <path id="Path_38" data-name="Path 38" d="M89.8,25.629c-4.768,0-9.535.023-14.3-.032a2.848,2.848,0,0,1-1.764-.691,1.979,1.979,0,0,1,.778-3.253,2.68,2.68,0,0,1,.894-.153q14.51-.011,29.021,0a2.066,2.066,0,1,1,.009,4.125c-3.465.013-6.93,0-10.394,0H89.8" transform="translate(-60.99 -17.917)" fill="#ce778b"/>
    <path id="Path_39" data-name="Path 39" d="M309.934,6.5a6.538,6.538,0,0,1,13.076.071A6.538,6.538,0,1,1,309.934,6.5" transform="translate(-258.37 0)" fill="#ce778b"/>
    <path id="Path_40" data-name="Path 40" d="M336.072,109.23c1.15,1.433,2.274,2.794,3.347,4.194a.925.925,0,0,0,1.189.359c3.4-1,6.805-1.95,10.211-2.916a2.917,2.917,0,1,1,1.667,5.567c-3.718,1.078-7.432,2.169-11.167,3.179a5.442,5.442,0,0,1-5.886-1.862c-.525-.608-.983-1.274-1.52-1.87a.754.754,0,0,1-.071-1.023c.616-1.144,1.234-2.291,1.747-3.482a12.2,12.2,0,0,0,.483-2.148" transform="translate(-278.163 -91.058)" fill="#ce778b"/>
    <path id="Path_41" data-name="Path 41" d="M14.543,192.063c3.977,0,7.954.041,11.93-.02a2.059,2.059,0,1,1-.024,4.089q-12.091.008-24.183,0a2.045,2.045,0,1,1-.018-4.068c3.6-.006,7.2,0,10.8,0h1.492v-.005" transform="translate(0 -160.093)" fill="#ce778b"/>
    <path id="Path_42" data-name="Path 42" d="M18.188,78.375c3.825,0,7.65-.006,11.475,0a2.07,2.07,0,0,1,2.112,1.433,1.923,1.923,0,0,1-.7,2.219,2.677,2.677,0,0,1-1.379.454q-11.517.041-23.034.016a2.069,2.069,0,1,1,.048-4.121q5.738-.012,11.475,0" transform="translate(-3.702 -65.334)" fill="#ce778b"/>
    <path id="Path_43" data-name="Path 43" d="M60.707,135.264c1.743,0,3.487-.009,5.23,0a2.026,2.026,0,0,1,2.155,1.939,1.994,1.994,0,0,1-2.022,2.162q-5.39.061-10.781,0a2.022,2.022,0,0,1-2.013-2.1,2.052,2.052,0,0,1,2.117-1.993c1.771-.016,3.542,0,5.313,0" transform="translate(-44.414 -112.758)" fill="#ce778b"/>
  </g>
</svg>
