<svg id="Group_262" data-name="Group 262" xmlns="http://www.w3.org/2000/svg" xmlns:xlink="http://www.w3.org/1999/xlink" width="73.675" height="69.801" viewBox="0 0 73.675 69.801">
  <defs>
    <clipPath id="clip-path">
      <rect id="Rectangle_504" data-name="Rectangle 504" width="73.675" height="69.801" fill="#ce778b"/>
    </clipPath>
  </defs>
  <g id="Group_261" data-name="Group 261" clip-path="url(#clip-path)">
    <path id="Path_44" data-name="Path 44" d="M33.983,52.855V46.962a23.359,23.359,0,0,1-12.554-5.7c-1.746-1.632-2.9-4.024-4.832-5.294-1.858-1.221-4.53-1.129-6.576-2.151C3.587,30.6.434,25.145.038,18.036c-.067-1.2-.031-2.413-.006-3.62A6.708,6.708,0,0,1,6.85,7.5c2.063-.061,4.129-.01,6.434-.01,0-1.425-.008-2.679,0-3.932.021-2.6.882-3.524,3.468-3.538,5.765-.03,11.531-.011,17.3-.011q11.263,0,22.525,0c2.991.006,3.8.836,3.807,3.812,0,1.127,0,2.254,0,3.662,2.064,0,3.981-.012,5.9,0,4.639.036,7.256,2.75,7.378,7.4.133,5.077-.608,9.855-3.873,13.983a18.088,18.088,0,0,1-11.506,6.715,2.718,2.718,0,0,0-1.673.808A24.149,24.149,0,0,1,39.672,46.958v5.9c1.83,0,3.61-.041,5.387.008A10.334,10.334,0,0,1,54.73,63.431a6.591,6.591,0,0,1-6.567,6.3c-7.574.082-15.152.1-22.725-.008a6.667,6.667,0,0,1-6.466-7.763,10.353,10.353,0,0,1,10.306-9.1c1.525-.01,3.051,0,4.706,0M54.744,5.7H18.917c0,5.8.2,11.434-.043,17.05a18.148,18.148,0,0,0,20.887,18.51c7.725-1.229,14.754-8.532,14.95-16.354.158-6.295.032-12.6.032-19.206M36.857,64.142c3.478,0,6.956-.043,10.432.019,1.766.031,2.08-.835,1.673-2.285a4.531,4.531,0,0,0-4.428-3.419q-7.722-.087-15.446,0a4.485,4.485,0,0,0-4.325,3.273c-.57,1.728-.139,2.388,1.663,2.4,3.477.026,6.954.008,10.431.007M13.54,13.052c-1.284,0-2.073-.012-2.861,0-5.769.1-5.1-1.007-4.99,5.377C5.771,23.446,9.5,28.2,13.54,29.125Zm46.843.007c0,2.994.053,5.663-.015,8.329-.066,2.618-.255,5.233-.394,7.947a9.168,9.168,0,0,0,.96-.333,13.513,13.513,0,0,0,7.019-14.816,1.88,1.88,0,0,0-1.37-1.076c-1.98-.123-3.972-.051-6.2-.051" transform="translate(0 0)" fill="#ce778b"/>
  </g>
</svg>
