<svg xmlns="http://www.w3.org/2000/svg" xmlns:xlink="http://www.w3.org/1999/xlink" width="75.327" height="75.28" viewBox="0 0 75.327 75.28">
  <defs>
    <clipPath id="clip-path">
      <rect id="Rectangle_499" data-name="Rectangle 499" width="75.327" height="75.28" fill="#ce778b"/>
    </clipPath>
  </defs>
  <g id="Group_252" data-name="Group 252" transform="translate(0 0)">
    <g id="Group_251" data-name="Group 251" transform="translate(0 0)" clip-path="url(#clip-path)">
      <path id="Path_22" data-name="Path 22" d="M145.577,151.2c.335.651.631,1.29.985,1.9.462.791.974,1.553,1.458,2.331.542.873-.711,3.932-1.7,4.162-1.226.285-2.456.559-3.678.86a1.893,1.893,0,0,0-1.565,1.887c-.03,2.027.016,4.055-.031,6.081-.035,1.509.956,2.185,2.246,2.457,1.035.218,2.072.424,3.108.636a1.254,1.254,0,0,1,.166.044c.724.255,1.917,3.3,1.526,3.97q-.891,1.517-1.844,3c-.734,1.145-.8,1.854.132,2.875,1.382,1.519,2.86,2.952,4.344,4.373a1.894,1.894,0,0,0,2.7.2c.849-.626,1.795-1.119,2.675-1.7a1.686,1.686,0,0,1,1.994-.152,3.818,3.818,0,0,0,1.173.516c1.047.219,1.366.968,1.542,1.883.184.954.4,1.9.616,2.849a1.782,1.782,0,0,0,1.751,1.617c2.281.067,4.566.041,6.849,0a1.619,1.619,0,0,0,1.584-1.348c.305-1.188.638-2.373.86-3.578a1.38,1.38,0,0,1,.908-1.219,1.638,1.638,0,0,0,.4-.161c1.715-1.217,3.223-.779,4.676.515a15.241,15.241,0,0,0,1.454.912,1.707,1.707,0,0,0,2.2-.1,24.815,24.815,0,0,0,4.808-4.752,1.831,1.831,0,0,0,.058-2.588c-.636-1.019-1.311-2.017-1.873-3.076a2.171,2.171,0,0,1-.052-1.267c.059-.355.363-.669.426-1.024.255-1.435,1.227-1.9,2.529-2.069.844-.11,1.662-.407,2.5-.57a1.786,1.786,0,0,0,1.557-1.8c.069-2.2.061-4.4-.018-6.6-.059-1.62-1.426-1.81-2.62-2.1-.888-.219-1.8-.347-2.675-.61a1.91,1.91,0,0,1-.832-.721c-.2-.267-.23-.658-.423-.933-.952-1.356-.54-2.537.368-3.714.452-.586.787-1.26,1.207-1.872a1.77,1.77,0,0,0-.03-2.229,22.348,22.348,0,0,0-5.168-5.106,1.718,1.718,0,0,0-2.017.081q-1.641,1.02-3.291,2.024c-.166.1-.405.266-.534.213a13.7,13.7,0,0,1-3.224-1.489c-.483-.371-.454-1.41-.65-2.15a12.888,12.888,0,0,0-.667-2.388,2.185,2.185,0,0,0-1.289-1.077,18.533,18.533,0,0,0-7.25-.039,1.843,1.843,0,0,0-1.513,1.564q-.428,1.837-.861,3.673a1.92,1.92,0,0,1-.083.333c-.322.738-3.357,1.74-4.047,1.319-1.026-.627-2.026-1.295-3.053-1.919a1.772,1.772,0,0,0-2.508.136c-1.605,1.5-3.142,3.073-4.666,4.656a5.04,5.04,0,0,0-.632,1.3m6.8,31.011a4.1,4.1,0,0,1-.692-.4c-.469-.421-.909-.872-1.36-1.313a.984.984,0,0,1-.132-1.389c.579-.887,1.11-1.806,1.7-2.682a2.329,2.329,0,0,0,.109-2.574,36.793,36.793,0,0,1-1.672-4.034,2.022,2.022,0,0,0-1.6-1.484c-1.033-.217-2.06-.462-3.091-.689-.689-.151-1.135-.459-1.059-1.278.061-.654-.036-1.325.044-1.974a1,1,0,0,1,.547-.7A21.336,21.336,0,0,1,148,163a2.634,2.634,0,0,0,2.508-2.182,10.642,10.642,0,0,1,.865-2.326c1.248-2.67,1.262-2.663-.344-5.169-1.423-2.22-1.393-2.326.655-4.031a1.008,1.008,0,0,1,1.381-.083,32.749,32.749,0,0,0,3.152,1.917,2.216,2.216,0,0,0,1.58.059c1.607-.584,3.192-1.242,4.735-1.977a2.757,2.757,0,0,0,1.172-1.22,10.2,10.2,0,0,0,.512-1.981c.64-2.52.642-2.5,3.214-2.462a1.047,1.047,0,0,1,1.17.97c.215,1.064.442,2.127.7,3.182a2.108,2.108,0,0,0,1.334,1.556c1.588.636,3.142,1.361,4.743,1.964a2.129,2.129,0,0,0,1.436-.036A14.746,14.746,0,0,0,178.8,150c2.155-1.332,2.14-1.319,3.892.542a1.133,1.133,0,0,1,.155,1.6c-.489.741-.9,1.536-1.436,2.243a2.639,2.639,0,0,0-.18,3.113,29.66,29.66,0,0,1,1.486,3.643,2.2,2.2,0,0,0,1.676,1.646,22.962,22.962,0,0,1,2.421.564c1.807.574,1.754.047,1.767,2.162,0,.258-.024.518,0,.774a1.115,1.115,0,0,1-1.038,1.318c-.7.143-1.4.273-2.1.439-1.134.272-2.29.428-2.729,1.848a29.242,29.242,0,0,1-1.6,3.961,2.357,2.357,0,0,0,.072,2.51q.749,1.152,1.492,2.306c.677,1.054.656,1.213-.258,2.122-.285.283-.582.556-.847.856a1.17,1.17,0,0,1-1.749.131c-.879-.59-1.782-1.145-2.683-1.7a2.064,2.064,0,0,0-2.047-.069q-2.155.948-4.349,1.807a2.156,2.156,0,0,0-1.477,1.726,27.661,27.661,0,0,1-.742,3.167,1.274,1.274,0,0,1-.862.726,9.039,9.039,0,0,1-2.3,0,1.089,1.089,0,0,1-.739-.642c-.264-.9-.411-1.839-.605-2.763a2.588,2.588,0,0,0-1.612-2.235c-1.421-.512-2.835-1.061-4.2-1.7a2.28,2.28,0,0,0-2.357.055c-.827.514-1.638,1.051-2.467,1.559-.31.19-.652.327-1.006.5" transform="translate(-141.044 -115.744)" fill="#ce778b"/>
      <path id="Path_23" data-name="Path 23" d="M32.428,8c-.76.126-1.516.3-2.281.367a2.255,2.255,0,0,1-2.139-2.253c.1-.851.253-1.7.351-2.548a1.391,1.391,0,0,0-.814-1.49q-2.176-1-4.411-1.88a1.742,1.742,0,0,0-2.211.831,13.309,13.309,0,0,0-.792,1.121A2.057,2.057,0,0,1,17.9,3.321a1.618,1.618,0,0,1-1.355-.71C16.127,2,15.707,1.38,15.257.787A1.541,1.541,0,0,0,13.32.128c-1.4.564-2.821,1.089-4.2,1.712a1.813,1.813,0,0,0-1.157,2.3,6.85,6.85,0,0,0,.217.92A2.494,2.494,0,0,1,6.99,8.125a1.282,1.282,0,0,1-.791.188,8.983,8.983,0,0,1-2.017-.382,1.545,1.545,0,0,0-2.063.72A38.616,38.616,0,0,0,.168,13.2a1.685,1.685,0,0,0,.851,2.128c.32.188.584.477.913.641a2.16,2.16,0,0,1,1.279,2.592,1.886,1.886,0,0,1-.5.992A17.149,17.149,0,0,1,.834,20.92a1.547,1.547,0,0,0-.747,1.851c.539,1.56,1.151,3.1,1.843,4.6a1.616,1.616,0,0,0,1.961.866c.558-.12,1.149-.11,1.694-.267a1.811,1.811,0,0,1,1.965.621,1.963,1.963,0,0,1,.567,2.161A11.109,11.109,0,0,0,7.8,32.523a1.535,1.535,0,0,0,.838,1.653c1.469.691,2.973,1.31,4.477,1.925a1.651,1.651,0,0,0,2.084-.736c.341-.46.684-.923.978-1.413a2.03,2.03,0,0,1,2.1-1,1.618,1.618,0,0,1,1.422.775c.38.6.837,1.16,1.233,1.755a1.5,1.5,0,0,0,1.858.7c1.576-.586,3.144-1.209,4.656-1.94a1.58,1.58,0,0,0,.791-1.908c-.172-.752-.3-1.517-.406-2.281S29.178,27.914,30,28.018a16.452,16.452,0,0,1,1.852.35,1.957,1.957,0,0,0,2.5-1.1c.65-1.364,1.229-2.766,1.77-4.178a1.57,1.57,0,0,0-.613-1.9c-.57-.432-1.153-.849-1.743-1.252a2.2,2.2,0,0,1-.071-3.376c.529-.39,1.077-.756,1.609-1.143a1.8,1.8,0,0,0,.743-2.388c-.528-1.324-1.088-2.636-1.67-3.936A1.731,1.731,0,0,0,32.428,8m-7.92-.74a1.864,1.864,0,0,0,.854,1.773,8.495,8.495,0,0,1,1.768,1.739,2.291,2.291,0,0,0,2.683.969c.5-.094,1.022-.118,1.534-.169.84-.084.913.6,1.16,1.136s-.065.794-.441,1.051c-.568.388-1.152.755-1.689,1.182a2,2,0,0,0-.739,1.981,9.1,9.1,0,0,1,0,2.383,2.138,2.138,0,0,0,.929,2.308c.522.351,1.024.733,1.526,1.112.611.462.325,1.029.149,1.564a.9.9,0,0,1-1.15.625c-.7-.13-1.41-.262-2.121-.346a1.768,1.768,0,0,0-1.655.688c-.687.8-1.53,1.466-2.215,2.267a2.883,2.883,0,0,0-.67,1.469,4.871,4.871,0,0,0,.248,1.863,1.1,1.1,0,0,1-.717,1.562,1.175,1.175,0,0,1-1.648-.533c-1.736-2.634-1.3-2.161-4.138-2.147-3.108.015-2.548-.6-4.488,2.178a1.05,1.05,0,0,1-1.374.52c-.613-.243-1.032-.592-.894-1.34a13.893,13.893,0,0,1,.234-1.52,1.9,1.9,0,0,0-.583-2.091c-.82-.794-1.612-1.618-2.393-2.45A1.809,1.809,0,0,0,6.9,24.451c-.646.123-1.3.19-1.948.317-.8.157-.953-.44-1.189-.96a.874.874,0,0,1,.33-1.257c.578-.371,1.11-.812,1.692-1.177a1.641,1.641,0,0,0,.756-1.609c-.028-1.087-.032-2.176.013-3.261a1.846,1.846,0,0,0-.827-1.766c-.57-.384-1.122-.795-1.687-1.187-.627-.436-.4-.987-.1-1.435.217-.33.626-.741.956-.747a8.62,8.62,0,0,1,2.1.353,1.756,1.756,0,0,0,1.829-.638c.74-.794,1.581-1.5,2.3-2.31a2.437,2.437,0,0,0,.639-1.386,14.828,14.828,0,0,0-.3-2.454c-.112-.793.519-.936,1.031-1.151a.935.935,0,0,1,1.26.4c.326.5.7.976,1.022,1.485a1.932,1.932,0,0,0,1.972.92,18.726,18.726,0,0,1,2.742,0,1.971,1.971,0,0,0,2.072-.882c.318-.508.746-.947,1.058-1.458a.85.85,0,0,1,1.214-.43c.57.263,1.218.454,1.039,1.326-.144.7-.239,1.409-.356,2.114" transform="translate(39.087 0)" fill="#ce778b"/>
      <path id="Path_24" data-name="Path 24" d="M239.749,249.961a10.348,10.348,0,0,0,10.275-10.374,10.351,10.351,0,1,0-10.275,10.374m-.1-3.727a6.619,6.619,0,0,1-6.621-6.753,6.665,6.665,0,0,1,13.328.152,6.579,6.579,0,0,1-6.707,6.6" transform="translate(-214.162 -189.814)" fill="#ce778b"/>
      <path id="Path_25" data-name="Path 25" d="M60.4,68.572a7.709,7.709,0,0,0,7.739,7.753,7.88,7.88,0,0,0,7.669-7.8,7.709,7.709,0,0,0-7.707-7.6,7.579,7.579,0,0,0-7.7,7.64m7.683,4.394c-2.284.281-4.507-2.146-4.462-4.359a4.447,4.447,0,0,1,8.893-.038,4.375,4.375,0,0,1-4.431,4.4" transform="translate(-10.877 -50.445)" fill="#ce778b"/>
    </g>
  </g>
</svg>
