<svg id="Group_256" data-name="Group 256" xmlns="http://www.w3.org/2000/svg" xmlns:xlink="http://www.w3.org/1999/xlink" width="69.395" height="76.865" viewBox="0 0 69.395 76.865">
  <defs>
    <clipPath id="clip-path">
      <rect id="Rectangle_501" data-name="Rectangle 501" width="69.395" height="76.865" fill="#ce778b"/>
    </clipPath>
  </defs>
  <g id="Group_255" data-name="Group 255" clip-path="url(#clip-path)">
    <path id="Path_33" data-name="Path 33" d="M66.194,16.3c.164,1.182.341,2.242.455,3.308a87.57,87.57,0,0,1,.609,10.6,52.586,52.586,0,0,1-9.425,30.109,41.41,41.41,0,0,1-15.569,13.6,34.956,34.956,0,0,1-8.331,2.921,2.628,2.628,0,0,1-1.1-.1,37.684,37.684,0,0,1-16.516-8.693A47.7,47.7,0,0,1,2.958,47.622,52.7,52.7,0,0,1,.442,36.811a56.347,56.347,0,0,1,2.91-26.227c.111-.315.209-.635.316-.951.008-.023.039-.038.057-.054,1.406.47,2.787,1.029,4.218,1.394A21.566,21.566,0,0,0,28.367,6.257,32,32,0,0,0,32.85,1.022C33.1.689,33.357.356,33.628,0c.888,1.169,1.737,2.316,2.616,3.44a20.162,20.162,0,0,0,12.045,7.423,30.158,30.158,0,0,0,3.1.485c1.04.112,2.09.132,3.179.195a2.374,2.374,0,0,1-.189.249c-1.724,1.738-3.446,3.479-5.185,5.2a.746.746,0,0,1-.576.151,27.271,27.271,0,0,1-11.844-5.159c-.994-.758-1.9-1.631-2.847-2.452-.1-.085-.191-.175-.276-.253-7.391,7.152-16.13,9.581-26.218,7.615-.2.85-.426,1.716-.609,2.591A48.32,48.32,0,0,0,5.777,29.94a47.236,47.236,0,0,0,7.718,26.118A36.24,36.24,0,0,0,26.543,68.205a31.075,31.075,0,0,0,6.751,2.68,1.358,1.358,0,0,0,.675,0A32.426,32.426,0,0,0,48.3,62.623,43.186,43.186,0,0,0,60.106,41.346a47.506,47.506,0,0,0,1.337-12.779c-.057-1.874-.284-3.743-.447-5.613a.917.917,0,0,1,.211-.752c1.583-1.865,3.149-3.745,4.722-5.62.055-.065.117-.124.266-.279" transform="translate(0)" fill="#ce778b"/>
    <path id="Path_34" data-name="Path 34" d="M189.681,127.833c-1.029-2.733-2.005-5.452-3.074-8.133a73.22,73.22,0,0,0-5.368-11.344,19.721,19.721,0,0,0-2.23-2.9,6.176,6.176,0,0,0-3.828-2.044A18.83,18.83,0,0,1,176.8,102.1a24.468,24.468,0,0,1,3.044-1.77,4.361,4.361,0,0,1,5.261,1.072,17.958,17.958,0,0,1,3.321,4.634c1.31,2.595,2.514,5.243,3.763,7.868l.2.423c.779-1.332,1.513-2.618,2.276-3.886a138.367,138.367,0,0,1,13.752-18.978c2.675-3.105,5.442-6.128,8.412-8.951,2.777-2.639,5.658-5.168,8.489-7.751a.491.491,0,0,1,.621-.08c.965.443,1.939.866,2.909,1.3.493.219.5.28.122.648-1.531,1.478-3.088,2.93-4.586,4.44A140.35,140.35,0,0,0,207.744,101.4a103.693,103.693,0,0,0-7.526,12.783c-1.336,2.758-2.471,5.612-3.709,8.418a1.41,1.41,0,0,1-.457.592,52.344,52.344,0,0,0-6.371,4.644" transform="translate(-159.85 -68.079)" fill="#ce778b"/>
  </g>
</svg>
