<svg id="Group_264" data-name="Group 264" xmlns="http://www.w3.org/2000/svg" xmlns:xlink="http://www.w3.org/1999/xlink" width="78.164" height="76.133" viewBox="0 0 78.164 76.133">
  <defs>
    <clipPath id="clip-path">
      <rect id="Rectangle_505" data-name="Rectangle 505" width="78.164" height="76.133" fill="#ce778b"/>
    </clipPath>
  </defs>
  <g id="Group_263" data-name="Group 263" clip-path="url(#clip-path)">
    <path id="Path_45" data-name="Path 45" d="M88.412,22.633c0-3.282.01-6.565,0-9.847A2.629,2.629,0,0,1,89.839,10.3Q98.432,5.362,107.005.389a2.452,2.452,0,0,1,2.639-.006q8.623,4.989,17.254,9.965a2.537,2.537,0,0,1,1.357,2.373q-.007,9.923,0,19.847a2.536,2.536,0,0,1-1.364,2.37q-8.633,4.971-17.255,9.962a2.423,2.423,0,0,1-2.595.01q-8.647-5-17.3-9.992a2.5,2.5,0,0,1-1.334-2.335q.007-4.975,0-9.949m18.323,18.4c.01-.172.022-.285.022-.4q0-8.35.01-16.7a.629.629,0,0,0-.405-.611q-7.094-4.089-14.18-8.19c-.17-.1-.348-.183-.559-.294-.015.172-.033.287-.033.4q0,8.324-.012,16.649a.679.679,0,0,0,.411.667q7.14,4.11,14.272,8.235c.14.081.288.146.475.24m18.346-26.215c-.173.085-.263.123-.347.172q-7.245,4.182-14.492,8.359a.636.636,0,0,0-.337.655q.011,8.3.006,16.6c0,.127.011.253.019.436.161-.08.265-.125.363-.181q7.2-4.157,14.4-8.309a.714.714,0,0,0,.387-.731q-.01-8.2,0-16.4c0-.177,0-.355,0-.6m-1.587-2.777c-2.016-1.166-3.949-2.275-5.869-3.405a.662.662,0,0,0-.774.005q-7.164,4.16-14.338,8.3c-.123.071-.236.158-.4.267,1.982,1.147,3.915,2.255,5.834,3.386a.662.662,0,0,0,.774,0q5.145-2.994,10.3-5.967l4.467-2.585m-30.308-.007c.192.119.3.192.417.258,1.623.939,3.251,1.868,4.865,2.823a.737.737,0,0,0,.865.009q7.121-4.136,14.256-8.245c.137-.079.263-.177.424-.286-.1-.071-.149-.114-.2-.146-1.725-1-3.456-1.988-5.173-3a.588.588,0,0,0-.688.055q-4.45,2.577-8.906,5.145c-1.93,1.115-3.858,2.232-5.854,3.387" transform="translate(-69.252 0)" fill="#ce778b"/>
    <path id="Path_46" data-name="Path 46" d="M13.87,150.44a4.426,4.426,0,0,1,3.709-1.894,4.188,4.188,0,0,1,3.01,1.259q5.07,5.053,10.116,10.13a7.933,7.933,0,0,1,2.3,5.734c.015,2.877.007,5.754,0,8.631a.863.863,0,0,0,.358.764,3.637,3.637,0,0,1,1.4,2.917c.012,1.489.008,2.979,0,4.468a1.554,1.554,0,0,1-1.56,1.64,1.524,1.524,0,0,1-1.5-1.639c-.009-1.388,0-2.775,0-4.163,0-.775-.251-1.03-1.033-1.03q-5.991,0-11.982,0c-.768,0-1,.232-1,1,0,1.422.009,2.843-.007,4.265a1.537,1.537,0,0,1-1.286,1.54,1.513,1.513,0,0,1-1.648-.9,1.914,1.914,0,0,1-.129-.689c-.012-1.506-.035-3.013,0-4.518a3.681,3.681,0,0,1,2.132-3.375A.548.548,0,0,0,17.1,174c-.014-.981-.019-1.963,0-2.944a1.049,1.049,0,0,0-.346-.841c-2.939-2.924-5.859-5.868-8.8-8.788a9.53,9.53,0,0,1-2.286-3.546c-1.785-4.869-3.6-9.725-5.392-14.592a3.969,3.969,0,0,1,3.819-5.469,3.876,3.876,0,0,1,3.329,2l6.122,10.108c.094.156.2.308.328.514m16.025,23.7c.009-.158.021-.273.021-.389,0-2.742.006-5.483,0-8.224a4.985,4.985,0,0,0-1.571-3.622q-2.568-2.565-5.133-5.133-2.369-2.37-4.737-4.739a1.309,1.309,0,0,0-2.257.684,1.383,1.383,0,0,0,.5,1.26q3.144,3.138,6.279,6.285a1.591,1.591,0,0,1,.545,1.453,1.441,1.441,0,0,1-1.031,1.208,1.563,1.563,0,0,1-1.664-.456q-3.992-4.013-7.994-8.016a4.981,4.981,0,0,1-.716-.912q-3.65-6-7.282-12.014c-.358-.591-.816-.781-1.293-.545a.961.961,0,0,0-.381,1.314c1.822,4.927,3.629,9.86,5.492,14.771A5.8,5.8,0,0,0,9.927,159c2.9,2.966,5.841,5.885,8.773,8.816,1.692,1.692,1.433,1.21,1.451,3.524.007.925,0,1.851,0,2.8Z" transform="translate(0 -107.956)" fill="#ce778b"/>
    <path id="Path_47" data-name="Path 47" d="M221.195,150.4l2.471-4.075c1.34-2.212,2.667-4.431,4.023-6.633a3.978,3.978,0,0,1,7.069,3.6q-2.438,6.605-4.885,13.207a11.6,11.6,0,0,1-2.174,4.254c-.735.772-1.5,1.518-2.25,2.272q-3.568,3.573-7.144,7.139a1.053,1.053,0,0,0-.355.839c.023,1,.016,2,0,2.994a.51.51,0,0,0,.335.537,3.691,3.691,0,0,1,2.149,3.414c.028,1.488.016,2.978,0,4.466a1.541,1.541,0,0,1-1.512,1.635,1.561,1.561,0,0,1-1.561-1.643c-.011-1.4,0-2.809,0-4.213,0-.732-.24-.976-.97-.976q-6.04,0-12.08,0c-.706,0-.96.268-.962,1,0,1.37,0,2.741,0,4.111a1.541,1.541,0,1,1-3.061.008q-.006-2.182,0-4.365a3.639,3.639,0,0,1,1.374-2.927.96.96,0,0,0,.38-.854c-.011-2.707.02-5.414-.014-8.121a8.733,8.733,0,0,1,2.744-6.631c3.114-3.058,6.241-6.107,9.241-9.276a4.568,4.568,0,0,1,7.183.237m-6.3,23.7c0-1.272.035-2.505-.013-3.735a2.4,2.4,0,0,1,.79-1.932c2.782-2.746,5.492-5.566,8.314-8.269A10.14,10.14,0,0,0,227,155.4c.034-.13.092-.254.139-.381q2.366-6.392,4.731-12.784a.949.949,0,0,0-.408-1.3.936.936,0,0,0-1.232.487c-.046.071-.089.144-.133.216q-3.6,5.944-7.2,11.886a4.828,4.828,0,0,1-.684.874q-2.3,2.332-4.621,4.641c-1.148,1.149-2.292,2.3-3.452,3.441a1.536,1.536,0,1,1-2.109-2.225q3.169-3.185,6.339-6.369a1.284,1.284,0,0,0,.094-1.933,1.308,1.308,0,0,0-1.938.1q-4.957,4.951-9.9,9.912a4.971,4.971,0,0,0-1.5,3.654c.008,2.657,0,5.314,0,7.971,0,.165.015.329.025.518Z" transform="translate(-156.889 -107.919)" fill="#ce778b"/>
  </g>
</svg>
