<svg id="Group_254" data-name="Group 254" xmlns="http://www.w3.org/2000/svg" xmlns:xlink="http://www.w3.org/1999/xlink" width="70.835" height="69.614" viewBox="0 0 70.835 69.614">
  <defs>
    <clipPath id="clip-path">
      <rect id="Rectangle_500" data-name="Rectangle 500" width="70.835" height="69.614" fill="#ce778b"/>
    </clipPath>
  </defs>
  <g id="Group_253" data-name="Group 253" clip-path="url(#clip-path)">
    <path id="Path_26" data-name="Path 26" d="M11.529,128.9c2.7,0,5.405-.016,8.108.013a.828.828,0,0,0,.963-.683q2.448-7.653,4.953-15.288a3.33,3.33,0,0,1,6.471,0c1.654,5.095,3.314,10.188,4.94,15.291a.836.836,0,0,0,.976.68q8.075-.03,16.15-.008a3.331,3.331,0,0,1,1.931,6.128q-6.032,4.364-12.055,8.741c-1.563,1.132-1.566,1.124-.979,2.93q2.311,7.109,4.618,14.219A3.29,3.29,0,0,1,46.49,164.8a3.329,3.329,0,0,1-4.1-.107q-6.558-4.762-13.1-9.542a.711.711,0,0,0-1.017.006q-6.541,4.784-13.108,9.533a3.32,3.32,0,0,1-5.2-3.785c1.657-5.094,3.3-10.192,4.977-15.279a.877.877,0,0,0-.387-1.186Q8,139.73,1.484,134.967A3.312,3.312,0,0,1,3.421,128.9c2.7-.013,5.405,0,8.108,0ZM9.061,134l-.055.133c.2.157.395.32.6.47q4.878,3.542,9.759,7.08a2.578,2.578,0,0,1,1.1,3.315q-1.479,4.574-2.965,9.146c-.341,1.052-.677,2.106-1.014,3.159a2.362,2.362,0,0,0,.8-.421q4.9-3.564,9.807-7.127a2.586,2.586,0,0,1,3.392.006q3.174,2.3,6.341,4.61c1.379,1,2.76,2,4.265,3.093-.08-.318-.112-.484-.164-.643q-1.867-5.764-3.736-11.527c-.595-1.841-.328-2.642,1.245-3.783q4.72-3.424,9.442-6.843c.239-.173.472-.357.707-.535a1.8,1.8,0,0,0-.807-.134q-6,0-12,0a2.655,2.655,0,0,1-2.963-2.156q-1.9-5.857-3.8-11.713c-.055-.169-.138-.329-.255-.6-.115.332-.188.534-.254.737q-1.913,5.887-3.826,11.775a2.544,2.544,0,0,1-2.642,1.95c-1.582.017-3.164.009-4.746.01H9.061" transform="translate(0 -95.841)" fill="#ce778b"/>
    <path id="Path_27" data-name="Path 27" d="M325.857,93.108a2.44,2.44,0,0,1,.751-1.839q6.31-6.31,12.622-12.617a2.536,2.536,0,1,1,3.537,3.634q-5.273,5.294-10.565,10.568c-.714.714-1.4,1.454-2.155,2.126a2.352,2.352,0,0,1-2.7.412,2.417,2.417,0,0,1-1.494-2.283" transform="translate(-282.899 -67.613)" fill="#ce778b"/>
    <path id="Path_28" data-name="Path 28" d="M36.657,128.8a6.863,6.863,0,0,1,.893-1.611q5.008-5.1,10.093-10.119a2.53,2.53,0,1,1,3.591,3.563q-5.034,5.071-10.1,10.108a2.46,2.46,0,0,1-2.853.522,2.429,2.429,0,0,1-1.464-2.371l-.159-.092" transform="translate(-31.825 -100.955)" fill="#ce778b"/>
    <path id="Path_29" data-name="Path 29" d="M393.636,387.879a7.2,7.2,0,0,1-.9,1.677c-1.643,1.735-3.349,3.411-5.053,5.088a2.534,2.534,0,1,1-3.572-3.6q2.5-2.529,5.025-5.025a2.532,2.532,0,0,1,4.334,1.769l.168.087" transform="translate(-332.799 -334.475)" fill="#ce778b"/>
    <path id="Path_30" data-name="Path 30" d="M198.769,0a2.82,2.82,0,0,1,2.405,1.688,2.335,2.335,0,0,1-.46,2.688q-2.562,2.647-5.2,5.215A2.529,2.529,0,0,1,191.956,6c1.7-1.743,3.411-3.475,5.177-5.15A6.574,6.574,0,0,1,198.769,0" transform="translate(-166.022)" fill="#ce778b"/>
    <path id="Path_31" data-name="Path 31" d="M486.975,311.171a6.141,6.141,0,0,1-.765,1.439,36.672,36.672,0,0,1-2.589,2.621,2.533,2.533,0,0,1-3.592-3.569q1.293-1.359,2.659-2.647a2.38,2.38,0,0,1,2.687-.486,2.678,2.678,0,0,1,1.6,2.643" transform="translate(-416.139 -267.668)" fill="#ce778b"/>
    <path id="Path_32" data-name="Path 32" d="M481.85,8.79a2.807,2.807,0,0,1-2.371-1.623,2.332,2.332,0,0,1,.391-2.7c.889-.969,1.822-1.9,2.79-2.794A2.524,2.524,0,0,1,486.2,5.259a38.549,38.549,0,0,1-2.756,2.731,6.948,6.948,0,0,1-1.592.8" transform="translate(-416.044 -0.903)" fill="#ce778b"/>
  </g>
</svg>
