<svg id="Group_248" data-name="Group 248" xmlns="http://www.w3.org/2000/svg" xmlns:xlink="http://www.w3.org/1999/xlink" width="75.313" height="64.338" viewBox="0 0 75.313 64.338">
  <defs>
    <clipPath id="clip-path">
      <rect id="Rectangle_497" data-name="Rectangle 497" width="75.313" height="64.338" fill="#ce778b"/>
    </clipPath>
  </defs>
  <g id="Group_247" data-name="Group 247" clip-path="url(#clip-path)">
    <path id="Path_17" data-name="Path 17" d="M0,18.336c1.38-.678,2.658-1.308,3.939-1.934Q20.567,8.267,37.193.124a.954.954,0,0,1,.952.007Q56.457,9.108,74.779,18.065c.152.074.3.155.515.266-.209.115-.353.2-.5.275Q56.472,27.569,38.157,36.54a1.008,1.008,0,0,1-1-.006Q18.908,27.587.65,18.659C.469,18.57.29,18.48,0,18.336" transform="translate(0 0)" fill="#ce778b"/>
    <path id="Path_18" data-name="Path 18" d="M75.5,306.9c-1.472.722-2.849,1.4-4.227,2.074q-16.481,8.064-32.961,16.13a.874.874,0,0,1-.87.034Q19.15,316.173.849,307.226c-.193-.094-.384-.193-.645-.325.212-.111.346-.186.484-.254,2.183-1.07,4.369-2.132,6.545-3.216a.96.96,0,0,1,.959-.008q14.572,7.148,29.15,14.284a1,1,0,0,0,1,.008q14.571-7.15,29.15-14.283a.96.96,0,0,1,.959-.011c2.175,1.086,4.362,2.147,6.544,3.217.138.068.274.142.506.264" transform="translate(-0.185 -274.735)" fill="#ce778b"/>
    <path id="Path_19" data-name="Path 19" d="M.342,453.54c.21-.114.354-.2.5-.274,2.2-1.077,4.4-2.147,6.587-3.236a.83.83,0,0,1,.827,0Q22.877,457.2,37.5,464.359a.919.919,0,0,0,.915.017q14.615-7.171,29.237-14.325a.913.913,0,0,1,.912.006c2.162,1.077,4.335,2.13,6.5,3.193.153.075.3.159.532.281-.2.107-.332.19-.475.26q-18.384,9-36.765,18a.789.789,0,0,1-.781,0Q19.22,462.787.855,453.806c-.151-.074-.3-.155-.513-.266" transform="translate(-0.31 -407.549)" fill="#ce778b"/>
  </g>
</svg>
